<svg width="126" height="130" viewBox="0 0 126 130" fill="none" xmlns="http://www.w3.org/2000/svg">
<g filter="url(#filter0_d_1_11)">
<path d="M30.601 60L5.701 102.8C0.900998 111.1 6.901 121.5 16.501 121.5H108.501C118.101 121.5 124.101 111.1 119.301 102.8L94.201 59.5L62.801 66.6L30.601 60Z" fill="#2876CB"/>
</g>
<g filter="url(#filter1_d_1_11)">
<path d="M45.901 14.6V33.5L6.00099 102.6L5.90099 102.8C5.50099 103.5 5.20099 104.1 5.00099 104.9C4.90099 105 4.90099 105.2 4.80099 105.4V105.5C4.80099 105.3 4.90099 105.2 5.00099 105.1C5.20099 104.4 5.60099 103.7 5.90099 103L6.00099 102.8L6.60099 101.8L18.601 81L30.601 60.2L31.201 59.2C36.001 53.4 44.401 51.8 51.101 55.6L58.801 60C60.101 60.7 61.301 61.4 62.501 62C63.701 61.4 64.901 60.7 66.201 60L73.901 55.6C80.801 51.6 89.501 53.5 94.301 59.7L106.401 80.7L118.201 101.1L119.301 102.9C119.801 103.7 120.201 104.5 120.501 105.4C120.601 105.6 120.601 105.8 120.701 105.9L121.001 107.4C121.001 107.6 121.001 107.7 121.101 107.9V110V107.8C121.101 107.6 121.101 107.5 121.001 107.3L120.701 105.8C120.701 105.6 120.601 105.4 120.501 105.3C120.201 104.4 119.801 103.6 119.301 102.8L79.001 33.2V14.6H45.901Z" fill="url(#paint0_linear_1_11)"/>
</g>
<g filter="url(#filter2_d_1_11)">
<path d="M62.501 61.9C61.301 61.3 60.101 60.6 58.801 59.9L51.101 55.5C44.401 51.6 36.001 53.3 31.201 59.1L30.601 60.1V60.2C30.901 62.3 34.201 76.9 62.501 61.9Z" fill="#1976D2"/>
</g>
<g filter="url(#filter3_d_1_11)">
<path d="M67.601 80.8L78.201 76.4C87.801 72.4 99.801 74.3 106.301 80.5L94.201 59.5C89.501 53.3 80.801 51.4 73.801 55.4L66.101 59.8C64.801 60.5 63.601 61.2 62.401 61.8C34.201 76.8 30.901 62.2 30.501 60V59.9L18.501 80.7V80.9C19.001 83.3 23.901 99.1 67.601 80.8Z" fill="#42A5F5"/>
</g>
<g filter="url(#filter4_d_1_11)">
<path d="M69.001 101.4L82.501 97C94.601 93 109.801 94.9 118.101 101L106.301 80.6C99.801 74.3 87.801 72.4 78.201 76.5L67.601 80.9C23.901 99.2 19.001 83.4 18.601 81.2V81L6.60101 101.8C7.20101 104.1 13.701 119.6 69.001 101.4Z" fill="#2C8DE3"/>
</g>
<g filter="url(#filter5_d_1_11)">
<path d="M121.001 109.341V108.056C121.001 107.858 121.001 107.759 120.901 107.561L120.6 106.079C120.596 105.895 120.525 105.72 120.4 105.585C120.101 104.715 119.698 103.886 119.198 103.114L118.096 101.335C109.782 95.305 94.556 93.428 82.436 97.381L68.911 101.73C13.516 119.719 7.005 104.497 6.304 102.026L5.703 103.015L5.603 103.213C5.203 103.904 4.902 104.497 4.701 105.288C4.601 105.387 4.601 105.585 4.501 105.684C4.401 106.079 4.301 106.375 4.201 106.771V106.968C4.101 107.364 4.101 107.66 4 108.056V110.428C4 110.823 4.1 111.12 4.2 111.515V111.713C4.3 112.009 4.3 112.306 4.4 112.602L4.701 113.492C4.701 113.591 4.801 113.788 4.901 113.887C5.001 114.282 5.202 114.579 5.402 114.875L5.702 115.469C5.803 115.666 5.903 115.765 6.003 115.963C6.203 116.259 6.404 116.457 6.604 116.753C6.804 116.951 6.905 117.149 7.105 117.346L7.506 117.742L8.006 118.236C8.207 118.434 8.408 118.533 8.608 118.73C9.108 119.126 9.509 119.422 10.01 119.719C10.711 120.114 11.513 120.509 12.314 120.707C12.514 120.806 12.714 120.806 12.815 120.905C13.315 121.003 13.817 121.201 14.318 121.201C14.518 121.201 14.618 121.201 14.818 121.3H109.08C109.28 121.3 109.48 121.3 109.681 121.201C109.881 121.201 109.981 121.201 110.182 121.102C110.682 121.003 111.183 120.905 111.584 120.806C111.784 120.806 111.985 120.707 112.185 120.608C112.485 120.509 112.686 120.41 112.986 120.312C114.048 119.933 115.033 119.363 115.891 118.631C116.092 118.434 116.292 118.335 116.492 118.137C116.693 118.038 116.793 117.841 116.993 117.643L117.394 117.248C117.494 117.149 117.594 117.05 117.594 116.951C117.694 116.753 117.895 116.655 117.995 116.457C118.195 116.259 118.295 116.062 118.396 115.864C118.496 115.765 118.596 115.567 118.696 115.469C118.796 115.37 118.896 115.172 118.896 115.073C118.997 114.876 119.197 114.579 119.297 114.381C119.397 114.184 119.497 113.887 119.598 113.689C119.698 113.492 119.798 113.195 119.898 112.998V112.899C119.998 112.701 119.998 112.503 120.098 112.306V112.207C120.199 111.811 120.299 111.416 120.299 111.021V110.527C120.299 110.329 120.299 110.131 120.399 109.934C121 109.835 121.001 109.637 121.001 109.341Z" fill="#2876CB"/>
</g>
<g filter="url(#filter6_d_1_11)">
<path d="M42.801 14.6H82.301C86.301 14.6 89.601 11.3 89.601 7.3C89.601 3.3 86.301 0 82.301 0H42.801C38.801 0 35.501 3.3 35.501 7.3C35.501 11.3 38.801 14.6 42.801 14.6Z" fill="#C2DEEE"/>
</g>
<defs>
<filter id="filter0_d_1_11" x="0.0116272" y="59.5" width="124.979" height="70" filterUnits="userSpaceOnUse" color-interpolation-filters="sRGB">
<feFlood flood-opacity="0" result="BackgroundImageFix"/>
<feColorMatrix in="SourceAlpha" type="matrix" values="0 0 0 0 0 0 0 0 0 0 0 0 0 0 0 0 0 0 127 0" result="hardAlpha"/>
<feOffset dy="4"/>
<feGaussianBlur stdDeviation="2"/>
<feComposite in2="hardAlpha" operator="out"/>
<feColorMatrix type="matrix" values="0 0 0 0 0 0 0 0 0 0 0 0 0 0 0 0 0 0 0.25 0"/>
<feBlend mode="normal" in2="BackgroundImageFix" result="effect1_dropShadow_1_11"/>
<feBlend mode="normal" in="SourceGraphic" in2="effect1_dropShadow_1_11" result="shape"/>
</filter>
<filter id="filter1_d_1_11" x="0.800995" y="14.6" width="124.3" height="103.4" filterUnits="userSpaceOnUse" color-interpolation-filters="sRGB">
<feFlood flood-opacity="0" result="BackgroundImageFix"/>
<feColorMatrix in="SourceAlpha" type="matrix" values="0 0 0 0 0 0 0 0 0 0 0 0 0 0 0 0 0 0 127 0" result="hardAlpha"/>
<feOffset dy="4"/>
<feGaussianBlur stdDeviation="2"/>
<feComposite in2="hardAlpha" operator="out"/>
<feColorMatrix type="matrix" values="0 0 0 0 0 0 0 0 0 0 0 0 0 0 0 0 0 0 0.25 0"/>
<feBlend mode="normal" in2="BackgroundImageFix" result="effect1_dropShadow_1_11"/>
<feBlend mode="normal" in="SourceGraphic" in2="effect1_dropShadow_1_11" result="shape"/>
</filter>
<filter id="filter2_d_1_11" x="26.601" y="53.3947" width="39.9" height="23.198" filterUnits="userSpaceOnUse" color-interpolation-filters="sRGB">
<feFlood flood-opacity="0" result="BackgroundImageFix"/>
<feColorMatrix in="SourceAlpha" type="matrix" values="0 0 0 0 0 0 0 0 0 0 0 0 0 0 0 0 0 0 127 0" result="hardAlpha"/>
<feOffset dy="4"/>
<feGaussianBlur stdDeviation="2"/>
<feComposite in2="hardAlpha" operator="out"/>
<feColorMatrix type="matrix" values="0 0 0 0 0 0 0 0 0 0 0 0 0 0 0 0 0 0 0.25 0"/>
<feBlend mode="normal" in2="BackgroundImageFix" result="effect1_dropShadow_1_11"/>
<feBlend mode="normal" in="SourceGraphic" in2="effect1_dropShadow_1_11" result="shape"/>
</filter>
<filter id="filter3_d_1_11" x="14.501" y="53.299" width="95.8" height="44.2234" filterUnits="userSpaceOnUse" color-interpolation-filters="sRGB">
<feFlood flood-opacity="0" result="BackgroundImageFix"/>
<feColorMatrix in="SourceAlpha" type="matrix" values="0 0 0 0 0 0 0 0 0 0 0 0 0 0 0 0 0 0 127 0" result="hardAlpha"/>
<feOffset dy="4"/>
<feGaussianBlur stdDeviation="2"/>
<feComposite in2="hardAlpha" operator="out"/>
<feColorMatrix type="matrix" values="0 0 0 0 0 0 0 0 0 0 0 0 0 0 0 0 0 0 0.25 0"/>
<feBlend mode="normal" in2="BackgroundImageFix" result="effect1_dropShadow_1_11"/>
<feBlend mode="normal" in="SourceGraphic" in2="effect1_dropShadow_1_11" result="shape"/>
</filter>
<filter id="filter4_d_1_11" x="2.60101" y="74.3301" width="119.5" height="43.8115" filterUnits="userSpaceOnUse" color-interpolation-filters="sRGB">
<feFlood flood-opacity="0" result="BackgroundImageFix"/>
<feColorMatrix in="SourceAlpha" type="matrix" values="0 0 0 0 0 0 0 0 0 0 0 0 0 0 0 0 0 0 127 0" result="hardAlpha"/>
<feOffset dy="4"/>
<feGaussianBlur stdDeviation="2"/>
<feComposite in2="hardAlpha" operator="out"/>
<feColorMatrix type="matrix" values="0 0 0 0 0 0 0 0 0 0 0 0 0 0 0 0 0 0 0.25 0"/>
<feBlend mode="normal" in2="BackgroundImageFix" result="effect1_dropShadow_1_11"/>
<feBlend mode="normal" in="SourceGraphic" in2="effect1_dropShadow_1_11" result="shape"/>
</filter>
<filter id="filter5_d_1_11" x="0" y="95.3001" width="125.001" height="33.9999" filterUnits="userSpaceOnUse" color-interpolation-filters="sRGB">
<feFlood flood-opacity="0" result="BackgroundImageFix"/>
<feColorMatrix in="SourceAlpha" type="matrix" values="0 0 0 0 0 0 0 0 0 0 0 0 0 0 0 0 0 0 127 0" result="hardAlpha"/>
<feOffset dy="4"/>
<feGaussianBlur stdDeviation="2"/>
<feComposite in2="hardAlpha" operator="out"/>
<feColorMatrix type="matrix" values="0 0 0 0 0 0 0 0 0 0 0 0 0 0 0 0 0 0 0.25 0"/>
<feBlend mode="normal" in2="BackgroundImageFix" result="effect1_dropShadow_1_11"/>
<feBlend mode="normal" in="SourceGraphic" in2="effect1_dropShadow_1_11" result="shape"/>
</filter>
<filter id="filter6_d_1_11" x="31.501" y="0" width="62.1" height="22.6" filterUnits="userSpaceOnUse" color-interpolation-filters="sRGB">
<feFlood flood-opacity="0" result="BackgroundImageFix"/>
<feColorMatrix in="SourceAlpha" type="matrix" values="0 0 0 0 0 0 0 0 0 0 0 0 0 0 0 0 0 0 127 0" result="hardAlpha"/>
<feOffset dy="4"/>
<feGaussianBlur stdDeviation="2"/>
<feComposite in2="hardAlpha" operator="out"/>
<feColorMatrix type="matrix" values="0 0 0 0 0 0 0 0 0 0 0 0 0 0 0 0 0 0 0.25 0"/>
<feBlend mode="normal" in2="BackgroundImageFix" result="effect1_dropShadow_1_11"/>
<feBlend mode="normal" in="SourceGraphic" in2="effect1_dropShadow_1_11" result="shape"/>
</filter>
<linearGradient id="paint0_linear_1_11" x1="62.802" y1="12.954" x2="62.802" y2="52.245" gradientUnits="userSpaceOnUse">
<stop stop-color="#A6CFE2"/>
<stop offset="0.64" stop-color="#C2DEEE"/>
</linearGradient>
</defs>
</svg>
